<?xml version="1.0" encoding="iso-8859-1"?>
<!-- Generator: Adobe Illustrator 19.0.0, SVG Export Plug-In . SVG Version: 6.00 Build 0)  -->
<svg version="1.1" id="Capa_1" xmlns="http://www.w3.org/2000/svg" xmlns:xlink="http://www.w3.org/1999/xlink" x="0px" y="0px"
	 viewBox="0 0 512 512" style="enable-background:new 0 0 512 512;fill:#9cafc3;" xml:space="preserve">
<g>
	<g>
		<path d="M256,202.738l-75,62.5v224.025h150V265.238L256,202.738z M301,459.264h-90v-40h90V459.264z M301,389.264h-90V279.288
			l45-37.5l45,37.5V389.264z"/>
	</g>
</g>
<g>
	<g>
		<path d="M437,122.738l-75,62.5v304.025h150V185.238L437,122.738z M482,459.264h-90v-40h90V459.264z M482,389.264h-90V199.288
			l45-37.5l45,37.5V389.264z"/>
	</g>
</g>
<g>
	<g>
		<path d="M75,22.738l-75,62.5v404.025h150V85.238L75,22.738z M120,459.264H30v-40h90V459.264z M120,389.264H30V99.289l45-37.5
			l45,37.5V389.264z"/>
	</g>
</g>
<g>
</g>
<g>
</g>
<g>
</g>
<g>
</g>
<g>
</g>
<g>
</g>
<g>
</g>
<g>
</g>
<g>
</g>
<g>
</g>
<g>
</g>
<g>
</g>
<g>
</g>
<g>
</g>
<g>
</g>
</svg>
