<?xml version="1.0" encoding="iso-8859-1"?>
<!-- Generator: Adobe Illustrator 19.0.0, SVG Export Plug-In . SVG Version: 6.00 Build 0)  -->
<svg version="1.1" id="Capa_1" xmlns="http://www.w3.org/2000/svg" xmlns:xlink="http://www.w3.org/1999/xlink" x="0px" y="0px"
	 viewBox="0 0 512 512" style="enable-background:new 0 0 512 512;fill:#9cafc3;" xml:space="preserve">
<g>
	<g>
		<path d="M31,0v198.879c0,150.166,91.976,280.78,221.46,312.26L256,512l3.54-0.861C389.71,479.492,481,348.314,481,198.879V0H31z
			 M451,198.879c0,129.529-76.365,251.229-195,282.184C138.462,450.393,61,329.787,61,198.879V30.033h390V198.879z"/>
	</g>
</g>
<g>
	<g>
		<path d="M81,50.055v148.824c0,114.097,63.877,226.518,170.503,260.065l4.497,1.415l4.497-1.415
			C368.082,425.096,431,311.725,431,198.879V50.055H81z M241,422.902c-61.097-27.23-103.006-86.102-120.573-152.104H241V422.902z
			 M241,240.765H114.18c-2.096-13.816-3.18-27.84-3.18-41.886V80.088h130V240.765z M271,422.901V270.798h120.581
			C374.098,336.507,332.296,395.576,271,422.901z M401,198.879c0,14.049-1.083,28.073-3.177,41.886H271V80.088h130V198.879z"/>
	</g>
</g>
<g>
</g>
<g>
</g>
<g>
</g>
<g>
</g>
<g>
</g>
<g>
</g>
<g>
</g>
<g>
</g>
<g>
</g>
<g>
</g>
<g>
</g>
<g>
</g>
<g>
</g>
<g>
</g>
<g>
</g>
</svg>
