<?xml version="1.0" encoding="iso-8859-1"?>
<!-- Generator: Adobe Illustrator 19.0.0, SVG Export Plug-In . SVG Version: 6.00 Build 0)  -->
<svg version="1.1" id="Capa_1" xmlns="http://www.w3.org/2000/svg" xmlns:xlink="http://www.w3.org/1999/xlink" x="0px" y="0px"
	 viewBox="0 0 512 512" style="enable-background:new 0 0 512 512;fill:#9cafc3;" xml:space="preserve">
<g>
	<g>
		<path d="M461.896,129.518V79.417h-86.021V29.901h-30v49.514h-99.927V29.901h-30v49.514H112.291V29.901h-30v49.514H0v352.579
			h50.104v50.104H512v-352.58H461.896z M30,401.995V109.417h52.291v29.804h30v-29.804h103.657v29.804h30v-29.804h99.927v29.804h30
			v-29.804h56.021v292.579H30z M482,452.099H80.104v-20.104h381.792V159.519H482V452.099z"/>
	</g>
</g>
<g>
	<g>
		<rect x="81.02" y="190.01" width="40" height="40"/>
	</g>
</g>
<g>
	<g>
		<rect x="167.64" y="190.01" width="40" height="40"/>
	</g>
</g>
<g>
	<g>
		<rect x="254.26" y="190.01" width="40" height="40"/>
	</g>
</g>
<g>
	<g>
		<rect x="340.87" y="190.01" width="40" height="40"/>
	</g>
</g>
<g>
	<g>
		<rect x="81.02" y="250.01" width="40" height="40"/>
	</g>
</g>
<g>
	<g>
		<rect x="167.64" y="250.01" width="40" height="40"/>
	</g>
</g>
<g>
	<g>
		<rect x="254.26" y="250.01" width="40" height="40"/>
	</g>
</g>
<g>
	<g>
		<rect x="340.87" y="250.01" width="40" height="40"/>
	</g>
</g>
<g>
	<g>
		<rect x="81.02" y="310.01" width="40" height="40"/>
	</g>
</g>
<g>
	<g>
		<rect x="167.64" y="310.01" width="40" height="40"/>
	</g>
</g>
<g>
	<g>
		<rect x="254.26" y="310.01" width="40" height="40"/>
	</g>
</g>
<g>
</g>
<g>
</g>
<g>
</g>
<g>
</g>
<g>
</g>
<g>
</g>
<g>
</g>
<g>
</g>
<g>
</g>
<g>
</g>
<g>
</g>
<g>
</g>
<g>
</g>
<g>
</g>
<g>
</g>
</svg>
